<?xml version="1.0" encoding="UTF-8" standalone="no"?>
<!-- Created with Inkscape (http://www.inkscape.org/) -->

<svg
   xmlns:dc="http://purl.org/dc/elements/1.1/"
   xmlns:cc="http://creativecommons.org/ns#"
   xmlns:rdf="http://www.w3.org/1999/02/22-rdf-syntax-ns#"
   xmlns:svg="http://www.w3.org/2000/svg"
   xmlns="http://www.w3.org/2000/svg"
   version="1.1"
   width="744.09448"
   height="1052.3622"
   id="svg2">
  <defs
     id="defs4">
    <clipPath
       id="clipPath3239">
      <path
         d="m 295.221,1792.43 446.361,0 0,-494.25 -446.361,0 0,494.25 z"
         id="path3241" />
    </clipPath>
    <clipPath
       id="clipPath3199">
      <path
         d="m 327.67,1118.56 417.023,0 0,-471.983 -417.023,0 0,471.983 z"
         id="path3201" />
    </clipPath>
    <clipPath
       id="clipPath3127">
      <path
         d="m 1640.05,1117.65 446.36,0 0,-494.255 -446.36,0 0,494.255 z"
         id="path3129" />
    </clipPath>
    <clipPath
       id="clipPath3095">
      <path
         d="m 1676.59,1782.77 441.18,0 0,-489.68 -441.18,0 0,489.68 z"
         id="path3097" />
    </clipPath>
    <clipPath
       id="clipPath3051">
      <path
         d="m 967.636,1117.65 446.364,0 0,-494.256 -446.364,0 0,494.256 z"
         id="path3053" />
    </clipPath>
    <clipPath
       id="clipPath3023">
      <path
         d="m 967.636,1792.43 446.364,0 0,-494.25 -446.364,0 0,494.25 z"
         id="path3025" />
    </clipPath>
    <clipPath
       id="clipPath2999">
      <path
         d="m 0,2400 2400,0 L 2400,0 0,0 0,2400 z"
         id="path3001" />
    </clipPath>
    <clipPath
       id="clipPath3239-4">
      <path
         d="m 295.221,1792.43 446.361,0 0,-494.25 -446.361,0 0,494.25 z"
         id="path3241-2" />
    </clipPath>
  </defs>
  <metadata
     id="metadata7">
    <rdf:RDF>
      <cc:Work
         rdf:about="">
        <dc:format>image/svg+xml</dc:format>
        <dc:type
           rdf:resource="http://purl.org/dc/dcmitype/StillImage" />
        <dc:title></dc:title>
      </cc:Work>
    </rdf:RDF>
  </metadata>
  <g
     id="layer1">
    <g
       transform="matrix(1.25,0,0,-1.25,-1125.0001,2033.5941)"
       id="g2993">
      <g
         transform="translate(125.71429,-2.2857143)"
         id="g3700">
        <g
           transform="translate(786.3434,1157.1746)"
           id="g3219">
          <path
             d="m 0,0 c -4.206,13.907 -7.129,26.724 -6.383,41.749 0.728,14.645 5.034,28.238 6.342,42.32 1.41,15.18 -2.51,30.037 2.168,44.287 4.279,13.035 3.846,26.29 6.673,39.604 2.659,12.521 1.55,28.633 8.646,39.996 9.839,15.753 30.457,23.043 40.804,38.598 8.722,13.112 20.502,22.306 28.357,35.427 3.89,6.496 4.893,13.324 10.007,19.082 5.41,6.093 11.993,12.917 18.335,17.916 30.728,24.221 65.226,36.569 102.596,47.441 37.588,10.936 76.71,14.045 116.191,14.045 20.443,0 40.513,-2.122 60.045,-7.268 9.422,-2.481 18.97,-6.183 27.761,-9.846 10.505,-4.377 21.524,-6.341 32.136,-10.631 41.501,-16.777 76.03,-44.86 100.061,-82.363 4.863,-7.59 9.247,-16.613 13.178,-24.763 1.85,-3.838 3.456,-7.998 5.112,-11.816 2.199,-5.071 5.029,-7.862 7.899,-12.375 6.106,-9.603 5.46,-21.966 8.259,-32.37 2.342,-8.711 5.414,-16.95 6.512,-25.786 2.456,-19.766 7.653,-39.549 9.259,-59.348 1.87,-23.04 -0.58,-45.97 0.176,-69.065 0.666,-20.373 7.176,-38.583 3.326,-59.21 -4.38,-23.461 -12.376,-42.299 -26.128,-61.66 -10.751,-15.134 -22.656,-32.309 -36.32,-44.727 -8.488,-7.715 -16.508,-14.429 -25.717,-21.207 -9.621,-7.079 -16.434,-16.549 -24.788,-24.305 -12.031,-11.17 -25.279,-20.802 -40.826,-26.167 -8.662,-2.989 -18.84,-4.833 -27.016,-8.843 -10.341,-5.07 -19.041,-10.107 -30.885,-12.25 -11.309,-2.046 -21.37,-1.784 -32.511,-4.923 -9.518,-2.682 -18.792,-2.342 -28.727,-2.342 -19.837,0 -39.671,-0.077 -59.1,1.594 -40.399,3.475 -78.857,6.928 -115.61,26.823 -16.344,8.847 -31.952,20.636 -48.765,27.335 -13.504,5.381 -23.145,12.352 -34.7,20.635 -6.354,4.556 -10.168,9.476 -14.182,16.107 -5.045,8.339 -11.776,14.358 -17.939,21.706 C 18.709,-86.144 8.342,-27.581 0,0"
             id="path3221"
             style="fill:#bc9b6c;fill-opacity:1;fill-rule:nonzero;stroke:none" />
        </g>
        <g
           transform="translate(1153.0783,1522.6194)"
           id="g3223">
          <path
             d="m 0,0 c 13.219,-2.858 21.56,-14.35 34.067,-18.886 13.643,-4.948 27.551,-6.216 40.661,-12.801 13.243,-6.653 24.47,-15.606 31.056,-28.525 6.496,-12.741 18.301,-22.008 26.778,-33.166 8.585,-11.301 19.016,-19.456 29.001,-29.616 10.012,-10.191 18.036,-24.004 21.741,-38.285 5.422,-20.903 6.697,-41.134 8.715,-62.495 1.863,-19.719 -0.401,-40.065 2.695,-59.595 2.578,-16.272 3.997,-32.16 -0.793,-48.157 -3.23,-10.783 -10.746,-22.372 -16.339,-31.832 -6.49,-10.979 -13.413,-21.549 -21.516,-31.537 -4.799,-5.917 -10.795,-10.605 -15.277,-16.86 -5.278,-7.367 -8.504,-16.927 -14.626,-23.72 -23.736,-26.332 -59.914,-41.891 -92.109,-55.762 -11.03,-4.752 -20.981,-10.547 -32.68,-13.465 -12.341,-3.076 -24.321,-4.861 -36.268,-9.242 -9.253,-3.392 -18.24,-6.942 -27.285,-10.898 -5.713,-2.5 -11.533,-6.153 -17.702,-6.975 -23.341,-3.112 -47.288,-7.848 -70.37,0.638 -12.962,4.764 -25.922,7.985 -36.319,17.584 -7.418,6.848 -12.485,12.598 -21.363,17.732 -22.197,12.837 -45.882,20.202 -65.138,38.206 -16.719,15.631 -26.448,33.061 -37.573,52.621 -11.11,19.536 -27.138,36.416 -34.368,58.174 -6.332,19.056 -2.778,42.285 -1.742,62.069 0.933,17.822 3.888,34.847 6.496,52.302 2.943,19.692 0.683,37.887 0.491,57.651 -0.077,7.939 -0.042,13.368 4.596,20.136 3.41,4.976 7.744,9.509 11.71,14.103 8.909,10.323 17.713,19.461 28.54,27.748 5.607,4.291 11.481,8.091 16.744,12.523 6.755,5.69 9.813,12.403 13.854,20.281 6.496,12.664 15.609,23.567 23.91,35.016 13.35,18.416 37.65,29.826 59.846,34.227 17.454,3.462 34.005,10.635 51.232,15.212 C -108.405,9.967 -27.815,6.014 0,0"
             id="path3225"
             style="fill:#bf9f73;fill-opacity:1;fill-rule:nonzero;stroke:none" />
        </g>
        <g
           transform="translate(886.52652,1423.7884)"
           id="g3227">
          <path
             d="m 0,0 c 7.237,6.896 16.771,12.379 24.5,19.465 13.498,12.375 22.867,27.612 38.071,38.536 34.48,24.775 75.749,37.471 118.221,35.391 14.857,-0.727 29.88,0.2 44.757,0.014 13.161,-0.164 27.922,-3.884 40.477,-7.557 10.881,-3.184 21.314,-5.793 30.479,-12.268 7.393,-5.223 14.108,-11.548 21.012,-17.405 7.202,-6.112 16.112,-11.044 22.125,-18.418 5.717,-7.011 9.872,-15.169 14.212,-23.037 10.421,-18.89 24.599,-33.056 38.391,-49.497 12.325,-14.692 11.142,-38.745 18.534,-56.104 6.007,-14.104 13.424,-28.221 13.592,-43.943 0.125,-11.691 2.234,-24.258 0.494,-35.879 -1.517,-10.124 -6.119,-21.056 -9.154,-30.781 -5.613,-17.985 -14.68,-32.779 -27.227,-47.138 -11.629,-13.306 -24.614,-26.078 -37.711,-37.679 -13.432,-11.902 -25.761,-18.51 -43.015,-23.69 -18.518,-5.56 -38.574,-7.242 -56.545,-14.674 -27.495,-11.371 -51.758,-30.961 -80.262,-39.595 -13.002,-3.94 -25.963,-7.231 -39.25,-3.247 -11.953,3.583 -21.984,10.028 -33.127,15.477 -14.15,6.922 -30.861,7.353 -45.897,11.737 -16.8,4.9 -26.732,16.544 -36.959,29.837 -7.459,9.693 -14.491,19.411 -22.913,28.467 -6.369,6.848 -13.599,12.214 -19.914,19.022 -9.018,9.718 -18.946,15.319 -24.736,27.902 -6.283,13.656 -7.636,32.35 -9.774,47.207 -2.94,20.446 -2.373,42.521 2.549,62.338 2.524,10.161 6.045,20.713 7.686,31.049 1.529,9.643 0.937,19.703 1.874,29.423 1.455,15.087 9.763,21.704 19.278,32.423 C -25.48,-27.271 -5.172,-4.929 0,0"
             id="path3229"
             style="fill:#c3a57b;fill-opacity:1;fill-rule:nonzero;stroke:none" />
        </g>
        <g
           transform="translate(792.109,1187.8133)"
           id="g3231">
          <path
             d="m 0,0 c 0.432,9.906 -2.373,35.189 -0.052,51.609 2.171,15.356 9.345,27.169 10.172,43.514 0.882,17.41 -1.735,35.285 0,52.621 1.599,15.961 9.706,30.345 19.256,42.726 12.413,16.094 31.416,25.753 43.227,41.317 10.439,13.756 14.119,32.121 25.584,45.485 27.055,31.536 73.701,52.215 114.522,58.917 23.031,3.782 47.16,11.705 70.606,12.144 19.909,0.374 41.501,0.922 62.006,-0.225 18.37,-1.028 36.081,-11.831 53.332,-17.229 9.346,-2.924 18.535,-5.031 27.35,-9.336 5.051,-2.466 9.692,-4.851 14.192,-8.115 5.525,-4.009 24.216,-20.291 29.568,-24.724 7.278,-6.029 46.272,-46.976 57.737,-62.816 10.538,-14.559 24.64,-23.803 36.453,-37.663 15.062,-17.676 26.096,-90.181 27.073,-110.306 0.976,-20.127 0.841,-41.701 -1.064,-61.512 -1.129,-11.738 3.847,-63.201 -20.568,-114.541 -17.364,-36.512 -52.871,-49.396 -77.639,-76.955 -13.447,-14.963 -22.418,-30.699 -40.38,-40.68 -21.627,-12.015 -46.176,-12.394 -67.849,-22.037 -34.712,-15.445 -76.015,-11.138 -114.574,-11.132 -24.251,0.004 -42.342,6.65 -64.312,14.367 -9.634,3.383 -17.572,7.048 -27.551,9.133 -8.582,1.794 -18.167,3.544 -26.31,7.111 -33.863,14.834 -61.758,44.262 -82.166,74.632 -10.895,16.214 -24.3,29.276 -34.179,46.774 C 24.395,-79.142 16.941,-60.743 9.389,-42.276 4.838,-31.147 -0.43,-9.906 0,0 z"
             id="path3233"
             style="fill:none;stroke:#6f593f;stroke-width:6;stroke-linecap:butt;stroke-linejoin:miter;stroke-miterlimit:10;stroke-opacity:1;stroke-dasharray:none" />
        </g>
        <g
           transform="translate(559.84392,-305.39224)"
           id="g3235">
          <g
             id="g3237" />
          <g
             id="g3243">
            <g
               clip-path="url(#clipPath3239-4)"
               id="g3245"
               style="opacity:0.08000183">
              <g
                 transform="translate(580.2236,1700.4351)"
                 id="g3247">
                <path
                   d="M 0,0 C -5.835,-10.646 15.675,-16.043 18.529,-8.537 21.383,-1.03 5.338,9.74 0,0 m 54.438,-393.309 c -1.581,-3.556 4.851,-12.531 9.423,-7.399 6.387,7.166 -7.843,10.956 -9.423,7.399 M 2.63,-206.887 c 4.526,-5.491 6.694,-7.258 11.725,-3.108 3.324,2.741 4.94,8.375 1.905,12.162 -3.035,3.788 -23.397,2.796 -13.63,-9.054 m 97.374,119.218 c 0.426,-7.763 1.187,-10.722 8.301,-10.33 4.701,0.26 9.771,4.169 9.554,9.466 -0.216,5.298 -18.771,17.614 -17.855,0.864 m -39.009,-30.858 c -6.867,1.03 -16.246,-5.016 -17.166,-8.499 -0.92,-3.483 19.617,-17.365 23.025,-4.462 2.049,7.753 0.22,12.05 -5.859,12.961 m 81.296,-122.564 c 0.33,-21.094 18.119,-9.993 19.037,-1.43 0.917,8.56 -19.366,22.524 -19.037,1.43 M -32.22,73.714 c -9.585,-0.55 -2.2,-13.294 1.431,-11.896 3.633,1.398 5.432,12.291 -1.431,11.896 m 161.497,-433.882 c -2.95,1.523 -16.811,-0.035 -12.923,-9.77 3.769,-9.437 12.153,-9.767 14.064,-4.757 1.908,5.009 1.811,13.006 -1.141,14.527 m -379.029,246.332 c -6.93,-4.034 -8.676,-8.365 -5.021,-13.309 4.127,-5.584 15.035,-7.94 18.148,-6.127 3.113,1.812 -1.594,26.15 -13.127,19.436 m -18.622,-153.037 c -15.148,14.683 -19.877,-5.746 -14.473,-12.448 5.407,-6.703 29.622,-2.234 14.473,12.448 m 65.311,71.083 c -7.327,-3.29 -3.596,-22.251 7.065,-19.138 11.654,3.403 0.261,22.428 -7.065,19.138 m 57.942,-172.624 c -5.791,5.188 -8.422,6.74 -13.174,1.434 -3.141,-3.507 -3.963,-9.858 -0.062,-13.449 3.9,-3.592 25.728,0.819 13.236,12.015 m -37.192,112.469 c -11.792,-4.647 -12.253,-15.106 -6.015,-17.517 6.238,-2.411 16.213,-2.337 18.131,1.335 1.917,3.674 0.052,20.975 -12.116,16.182 m 61.528,163.085 c -4.289,0.412 -9.416,-2.429 -9.947,-7.253 -0.533,-4.825 14.566,-18.521 16.039,-3.236 0.682,7.084 0.398,9.866 -6.092,10.489 m -29.272,124.162 c -6.117,-2.706 -13.117,-9.811 -11.877,-13.764 1.243,-3.954 14.793,-14.87 20.008,-2.876 5.055,11.625 -2.015,19.346 -8.131,16.64 m 49.547,60.251 c -4.892,-2.193 -10.478,-7.915 -9.467,-11.078 1.008,-3.164 11.913,-11.863 16.047,-2.23 4.008,9.337 -1.687,15.5 -6.58,13.308"
                   id="path3249"
                   style="fill:#373535;fill-opacity:1;fill-rule:nonzero;stroke:none" />
              </g>
            </g>
          </g>
        </g>
        <g
           transform="translate(1179.1837,1070.0252)"
           id="g3251">
          <path
             d="m 0,0 c -6.07,0.836 -16.258,1.602 -23.397,3.95 -13.026,4.285 -18.454,-9.533 -13.779,-21.021 4.091,-10.051 17.214,-20.15 28.817,-18.369 10.839,1.663 20.961,13.862 20.972,24.954 C 12.622,-1.803 7.202,-0.993 0,0 m -102.733,315.884 c -3.747,1.614 -4.02,-8.84 -5.736,-12.467 -2.069,-4.373 -3.358,-7.97 -4.114,-12.932 -0.65,-4.263 -2.188,-11.501 1.298,-14.58 2.724,-2.407 10.487,-2.483 13.792,-1.454 15.589,4.851 -1.494,39.82 -5.24,41.433 M -41.4,125.303 c -11.818,3.808 -23,-1.333 -26.595,-9.971 -3.972,-9.542 -0.416,-25.193 4.587,-33.424 6.289,-10.345 19.779,-13.386 30.833,-8.539 23.481,10.297 7.724,46.601 -8.825,51.934 m 164.775,51.177 c -1.01,6.657 -1.558,13.451 -6.406,18.154 -4.43,4.298 -17.284,9.893 -26.362,3.935 -9.077,-5.958 -9.456,-15.884 -7.061,-25.379 3.038,-12.044 10.72,-19.11 22.793,-21.298 17.12,-3.101 19.204,10.287 17.036,24.588 m -127.8,77.142 c -7.774,-6.465 -7.492,-22.142 0.146,-29.969 6.182,-6.335 21.652,-10.84 28.84,-4.801 8.941,7.512 8.451,25.373 2.473,34.148 -5.002,7.344 -23.684,7.086 -31.459,0.622 m -165.814,87.822 c 5.193,11.358 11.528,18.481 -1.966,26.872 -9.109,5.664 -26.592,6.881 -30.804,3.277 -4.213,-3.604 -4.769,-7.569 -4.588,-11.142 0.505,-9.972 3.243,-23.235 13.093,-28.017 11.665,-5.664 19.275,-1.898 24.265,9.01 m 179.084,1.278 c 3.43,4.529 6.089,9.236 5.079,15.108 -0.548,3.191 -2.561,12.532 -5.864,14.304 -8.248,4.423 -23.148,-6.993 -28.18,-12.485 -4.395,-4.795 -5.772,-9.015 -3.945,-15.583 3.446,-12.401 24.232,-12.799 32.91,-1.344 M -303.939,141.549 c -8.461,5.087 -16.127,4.421 -26.274,1.615 -10.146,-2.806 -18.949,-13.101 -13.576,-23.095 4.973,-9.251 19.532,-12.409 28.775,-11.96 12.497,0.608 21.826,6.429 19.61,20.332 -0.908,5.691 -3.576,10.126 -8.535,13.108 m 83.234,89.789 c -10.972,0.203 -22.266,-15.358 -21.628,-28.197 0.608,-12.237 6.726,-22.242 19.647,-23.579 6.493,-0.672 12.223,-0.05 17.71,3.15 8.575,5 7.6,8.419 7.212,17.643 -0.222,5.306 -11.969,30.781 -22.941,30.983 m -60.296,68.162 c -11.115,10.03 -22.107,11.165 -32.114,-5.244 -10.006,-16.408 22.283,-37.984 35.388,-24.396 8.133,8.432 5.018,22.157 -3.274,29.64 m 102.86,-243.807 c -19.183,-12.05 -2.633,-54.259 19.714,-49.316 11.409,2.524 21.399,14.316 21.613,26.377 0.161,9.072 -21.252,35.549 -41.327,22.939"
             id="path3253"
             style="fill:#845846;fill-opacity:1;fill-rule:nonzero;stroke:none" />
        </g>
        <g
           transform="translate(1078.2335,1384.0794)"
           id="g3255">
          <path
             d="m 0,0 c -4.837,2.804 -12.536,-10.084 -13.262,-20.078 -0.275,-3.802 -0.107,-7.759 0.281,-11.484 0.411,-3.951 0.791,-6.27 4.467,-8.186 3.062,-1.596 6.51,-2.76 10.099,-2.458 11.828,0.998 8.988,15.176 7.352,23.305 C 8.074,-14.619 4.105,-2.38 0,0 z m 83.938,-311.611 c -5.104,0.242 -11.927,-0.7 -15.973,-4.341 -1.796,-1.615 -3.079,-3.555 -3.908,-5.793 -2.214,-5.979 0.964,-12.762 3.416,-15.706 6.66,-7.994 14.474,-14.074 24.46,-13.718 7.051,0.251 10.091,3.384 14.195,8.543 3.979,5 7.029,8.691 5.54,15.266 -2.364,10.443 -18.439,15.309 -27.73,15.749 z m -167.57,38.531 c -0.589,-12.521 1.424,-25.427 12.73,-32.074 5.709,-3.356 11.516,-2.138 17.647,-0.924 6.347,1.256 10.138,6.375 12.542,12.037 5.18,12.194 -1.068,21.77 -8.606,31.114 -7.31,9.059 -33.464,7.909 -34.313,-10.153 z m 200.335,215.756 c -4.879,1.147 -9.604,1.032 -14.279,-0.506 -4.36,-1.434 -7.915,-3.416 -10.007,-7.423 -1.045,-2.001 -1.803,-3.465 -2.255,-5.805 -1.112,-5.749 -1.112,-13.86 6.646,-19.811 4.629,-3.551 8.637,-7.116 14.3,-9.032 4.294,-1.452 11.329,-0.498 14.86,2.732 3.038,2.777 5.455,10.292 5.307,14.285 -0.199,5.404 -1.017,11.222 -3.579,16.105 -2.538,4.839 -5.637,8.196 -10.993,9.455 z m 106.185,-77.537 c -0.964,6.493 -1.982,9.786 -6.691,14.287 -3.983,3.807 -7.475,6.321 -13.632,6.442 -11.681,0.23 -19.321,-5.619 -19.187,-16.575 0.14,-11.442 2.35,-22.568 11.484,-29.364 5.021,-3.736 9.166,-5.636 15.679,-5.042 7.107,0.648 10.767,5.689 12.829,12.248 1.96,6.23 0.443,11.771 -0.482,18.004 z M 77.27,-229.048 c 3.269,9.992 -1.84,22.166 -8.178,29.986 -2.653,3.273 -6.113,7.191 -9.873,9.175 -11.002,5.803 -27.97,2.409 -29.554,-8.909 -1.056,-7.543 -1.568,-14.51 0.771,-21.498 1.681,-5.026 3.874,-10.281 6.989,-14.629 3.201,-4.467 8.235,-5.834 12.898,-8.061 5.472,-2.611 11.143,-0.146 16.528,1.611 5.379,1.756 8.724,7.149 10.419,12.325 z m -275.351,52.73 c -6.848,6.408 -16.271,8.977 -25.538,6.318 -4.235,-1.215 -10.818,-2.728 -13.808,-6.043 -3.655,-4.053 -3.373,-18.7 9.313,-26.183 4.118,-2.429 9.554,-6.424 14.293,-6.366 5.526,0.067 10.922,0.221 14.832,4.476 4.055,4.413 6.781,8.366 6.456,14.557 -0.257,4.907 -1.927,9.853 -5.548,13.241 z M 80.521,24.248 c 7.363,-3.867 21.652,-2.356 28.345,1.256 8.531,4.604 13.844,18.722 4.84,25.428 -9.251,6.891 -18.399,3.678 -27.752,-1.541 -3.96,-2.21 -8.995,-4.143 -10.365,-8.964 -0.665,-2.341 -0.538,-5.495 -0.055,-7.837 0.446,-2.163 2.485,-7.027 4.987,-8.342 z M -107.87,-94.813 c -7.453,5.858 -18.682,3.698 -26.68,-0.123 -3.185,-1.522 -7.656,-4.872 -8.342,-8.614 -0.447,-2.447 -0.11,-5.442 0.218,-7.843 0.281,-2.058 3.375,-12.743 4.77,-14.848 1.797,-2.712 3.434,-5.018 6.468,-6.496 9.142,-4.453 25.657,-4.066 30.499,6.702 4.281,9.519 1.141,24.877 -6.933,31.222 z m 28.719,110.948 c 5.306,2.053 8.536,8.587 10.223,13.648 1.644,4.926 0.757,11.026 -1.414,15.693 -2.08,4.469 -6.708,6.436 -10.707,9.019 -3.998,2.582 -7.876,4.356 -12.885,3.859 -2.217,-0.219 -4.109,-0.87 -6.163,-1.75 -5.886,-2.522 -6.04,-11.066 -5.882,-13.657 0.292,-4.832 0.399,-9.517 2.747,-13.739 2.359,-4.243 6.712,-7.364 10.622,-9.858 3.522,-2.246 9.173,-4.872 13.459,-3.215 z M -202.323,-9.084 c -3.284,-0.816 -7.399,-4.075 -8.76,-7.283 -3.605,-8.492 -0.468,-16.262 1.314,-19.898 2.901,-5.919 6.148,-7.35 8.846,-9.248 7.033,-4.948 19.75,-7.779 25.399,0.506 4.449,6.527 1.584,19.92 -2.374,25.839 -5.699,8.52 -14.121,12.644 -24.425,10.084 z"
             id="path3257"
             style="fill:none;stroke:#6a493a;stroke-width:6;stroke-linecap:butt;stroke-linejoin:miter;stroke-miterlimit:10;stroke-opacity:1;stroke-dasharray:none" />
        </g>
      </g>
    </g>
  </g>
</svg>
